<?xml version="1.0" standalone="no"?>
<!DOCTYPE svg PUBLIC "-//W3C//DTD SVG 20010904//EN"
    "http://www.w3.org/TR/2001/REC-SVG-20010904/DTD/svg10.dtd">
<svg height="512.000000pt" preserveAspectRatio="xMidYMid meet"
     version="1.0" viewBox="0 0 512.000000 512.000000" width="512.000000pt"
     xmlns="http://www.w3.org/2000/svg">
    <metadata>
        Created by potrace 1.11, written by Peter Selinger 2001-2013
    </metadata>
    <g fill="#000000"
       stroke="none" transform="translate(0.000000,512.000000) scale(0.100000,-0.100000)">
        <path d="M0 2560 l0 -2560 2560 0 2560 0 0 2560 0 2560 -2560 0 -2560 0 0
-2560z m2485 1985 c46 -14 123 -43 171 -65 61 -28 100 -40 133 -40 186 -1 358
-267 322 -499 -11 -73 -52 -181 -68 -181 -4 0 -46 7 -93 15 -47 8 -86 15 -88
15 -1 0 -24 -45 -50 -100 l-47 -100 -45 36 c-116 93 -244 127 -375 101 -42 -9
-105 -29 -139 -45 -59 -27 -63 -28 -121 -15 -92 20 -303 17 -404 -6 l-85 -19
-39 29 c-46 33 -236 109 -274 109 -51 0 -159 -33 -252 -76 -51 -24 -95 -44
-97 -44 -2 0 18 44 45 98 70 140 119 270 127 333 7 65 -14 161 -51 228 -14 24
-24 45 -23 46 2 2 48 25 103 53 237 118 429 145 653 92 l76 -18 120 34 c65 19
149 39 185 44 94 13 220 3 316 -25z m-1135 -954 c95 -35 135 -61 156 -104 9
-18 18 -33 19 -35 2 -2 46 10 99 27 124 40 139 40 164 -3 34 -57 94 -90 171
-94 46 -3 79 1 105 12 36 15 40 15 65 -3 14 -10 72 -67 129 -125 l103 -106
-148 -172 c-143 -168 -148 -173 -183 -170 -147 12 -260 -85 -260 -224 0 -162
158 -269 310 -208 l40 16 82 -65 c46 -36 100 -82 120 -103 l37 -39 -113 -141
-112 -141 -38 19 c-60 31 -151 27 -217 -8 -165 -90 -152 -319 23 -394 99 -43
226 -7 283 79 l25 38 108 12 c453 50 1017 53 1302 5 116 -19 253 -62 315 -99
121 -70 255 -360 255 -550 l0 -62 -87 -7 c-469 -33 -1826 -44 -2313 -18 -440
24 -601 37 -610 51 -10 17 -47 299 -60 456 -43 528 -8 1263 95 1994 21 151 32
189 52 191 1 0 39 -13 83 -29z m1257 -15 c3 -3 9 -26 14 -52 l9 -47 -70 -82
c-39 -46 -76 -88 -83 -94 -10 -8 -39 14 -123 97 -60 60 -131 128 -159 151
l-50 43 228 -5 c126 -3 231 -8 234 -11z m83 -440 c12 -70 20 -132 18 -137 -2
-6 -33 28 -70 75 l-67 85 46 55 c26 31 48 54 50 53 1 -2 12 -61 23 -131z m-76
-295 c153 -198 169 -235 119 -274 -38 -29 -213 -189 -237 -216 -11 -11 -23
-21 -28 -21 -5 0 -30 20 -56 44 -26 24 -80 69 -121 100 l-75 57 3 48 c1 27 -5
65 -14 89 l-17 41 138 161 c75 88 141 157 146 152 4 -4 68 -86 142 -181z
m-580 -202 c31 -25 34 -61 6 -89 -24 -24 -67 -26 -92 -3 -26 23 -24 78 4 97
30 21 50 20 82 -5z m732 -376 c-4 -65 -9 -145 -12 -177 l-6 -59 -79 84 c-43
46 -78 89 -79 95 0 11 164 174 176 174 3 0 3 -53 0 -117z m-125 -415 c-62 -9
-362 -30 -366 -26 -2 2 42 61 98 131 l101 129 107 -114 107 -113 -47 -7z
m-585 -93 c9 -36 1 -58 -27 -74 -33 -19 -74 -8 -96 25 -15 23 -15 29 -2 52 26
47 113 45 125 -3z m-549 -970 c729 -45 1753 -47 2482 -5 91 5 167 8 169 6 9
-10 -44 -93 -88 -137 -54 -54 -51 -53 -275 -69 -466 -33 -1036 -44 -1570 -31
-429 11 -893 29 -931 36 -16 4 -26 21 -42 77 -12 40 -25 88 -28 106 -8 39 -36
37 283 17z"/>
    </g>
</svg>
